<svg width="30" height="29" viewBox="0 0 30 29" fill="none" xmlns="http://www.w3.org/2000/svg">
<path d="M25.4353 6.23597C25.427 6.22117 25.4132 6.20958 25.3964 6.20327C23.4513 5.38608 21.3987 4.80336 19.2899 4.46969C19.2707 4.46643 19.251 4.46878 19.2333 4.47642C19.2157 4.48405 19.2012 4.49657 19.1918 4.51221C18.9123 4.97673 18.6586 5.45388 18.4316 5.94182C16.1584 5.62585 13.8462 5.62585 11.5731 5.94182C11.3446 5.45264 11.0868 4.97538 10.8009 4.51221C10.7911 4.49691 10.7765 4.48468 10.759 4.47709C10.7415 4.46951 10.7219 4.46693 10.7027 4.46969C8.59374 4.80266 6.541 5.38542 4.59618 6.20331C4.57953 6.20978 4.56549 6.22081 4.55598 6.2349C0.66673 11.5534 -0.398682 16.741 0.123973 21.8645C0.125443 21.8771 0.129656 21.8892 0.136361 21.9002C0.143067 21.9113 0.152127 21.921 0.163004 21.9287C2.42768 23.4642 4.96074 24.6362 7.6541 25.3948C7.67307 25.4 7.69332 25.3998 7.71214 25.3941C7.73096 25.3885 7.74744 25.3777 7.75936 25.3632C8.33783 24.6425 8.8504 23.8793 9.29186 23.0814C9.29793 23.0704 9.30139 23.0584 9.30202 23.0461C9.30266 23.0339 9.30044 23.0216 9.29553 23.0102C9.29062 22.9988 9.28312 22.9884 9.27353 22.9799C9.26393 22.9713 9.25246 22.9647 9.23987 22.9604C8.43158 22.6772 7.64906 22.3359 6.89966 21.9395C6.88605 21.9322 6.87461 21.9219 6.86637 21.9095C6.85813 21.8972 6.85333 21.8832 6.85239 21.8688C6.85146 21.8543 6.85442 21.8399 6.86102 21.8268C6.86762 21.8136 6.87765 21.8022 6.89022 21.7934C7.04747 21.6856 7.20481 21.5733 7.35497 21.46C7.36831 21.4499 7.38445 21.4435 7.40158 21.4414C7.4187 21.4393 7.43614 21.4416 7.45191 21.448C12.3616 23.4998 17.6769 23.4998 22.5285 21.448C22.5443 21.4412 22.5619 21.4385 22.5793 21.4405C22.5967 21.4424 22.6131 21.4488 22.6267 21.4589C22.7769 21.5723 22.9342 21.6856 23.0926 21.7934C23.1052 21.8021 23.1153 21.8135 23.122 21.8266C23.1287 21.8396 23.1318 21.854 23.131 21.8685C23.1302 21.8829 23.1255 21.8969 23.1174 21.9093C23.1092 21.9217 23.0979 21.9321 23.0843 21.9395C22.3366 22.3392 21.5534 22.6804 20.743 22.9594C20.7304 22.9638 20.719 22.9705 20.7094 22.9792C20.6999 22.9879 20.6925 22.9984 20.6877 23.0099C20.6828 23.0214 20.6807 23.0337 20.6815 23.0461C20.6822 23.0584 20.6858 23.0704 20.692 23.0814C21.1408 23.8748 21.6526 24.6371 22.2233 25.362C22.2349 25.3768 22.2513 25.388 22.2702 25.3939C22.289 25.3997 22.3095 25.4 22.3285 25.3947C25.0267 24.6387 27.5642 23.4665 29.8317 21.9287C29.8428 21.9214 29.852 21.9119 29.8587 21.901C29.8654 21.8901 29.8695 21.878 29.8708 21.8656C30.4965 15.9423 28.8232 10.7972 25.4353 6.23597ZM10.0251 18.7448C8.54691 18.7448 7.32895 17.5027 7.32895 15.9772C7.32895 14.4517 8.52329 13.2095 10.0251 13.2095C11.5386 13.2095 12.7448 14.4625 12.7212 15.9771C12.7212 17.5027 11.5268 18.7448 10.0251 18.7448ZM19.9935 18.7448C18.5154 18.7448 17.2974 17.5027 17.2974 15.9772C17.2974 14.4517 18.4917 13.2095 19.9935 13.2095C21.5071 13.2095 22.7132 14.4625 22.6896 15.9771C22.6896 17.5027 21.5071 18.7448 19.9935 18.7448Z" fill="black"/>
</svg>
