<svg width="176" height="38" viewBox="0 0 176 38" fill="none" xmlns="http://www.w3.org/2000/svg">
<path d="M59.8518 27.1861V15.21C59.8518 12.0166 60.8948 10.0942 65.5977 10.0942H67.1232C68.674 10.0942 69.8695 10.5948 70.759 11.5925H71.0902C72.0049 10.5948 73.1247 10.0942 74.6744 10.0942H76.1999C80.9039 10.0942 81.971 12.0155 81.971 15.21V27.1861C81.971 27.5112 81.7934 27.6855 81.4621 27.6855H79.5812C79.2499 27.6855 79.0723 27.5112 79.0723 27.1861V15.2595C79.0723 12.8647 77.98 12.6656 75.9959 12.6656H75.2073C73.4537 12.6656 72.3602 13.0638 72.3602 15.21V27.1861C72.3602 27.5112 72.1825 27.6855 71.8524 27.6855H69.9704C69.6403 27.6855 69.4626 27.5112 69.4626 27.1861V15.2595C69.4626 13.0627 68.3692 12.6656 66.6155 12.6656H65.8017C63.8176 12.6656 62.7505 12.8647 62.7505 15.2595V27.1861C62.7505 27.5112 62.5729 27.6855 62.2428 27.6855H60.3607C60.0295 27.6855 59.8518 27.5112 59.8518 27.1861Z" fill="#202020"/>
<path d="M119.707 22.6337V15.148C119.707 11.9546 121.258 10.0322 125.453 10.0322H127.97C131.682 10.0322 133.461 11.8533 133.461 14.9477C133.461 15.2728 133.284 15.4483 132.952 15.4483H131.097C130.792 15.4483 130.563 15.2728 130.563 14.9477C130.563 13.2526 129.342 12.6036 127.766 12.6036H125.656C123.673 12.6036 122.605 13.3021 122.605 15.1975V22.582C122.605 24.5032 123.673 25.1781 125.656 25.1781H127.766C129.342 25.1781 130.563 24.5797 130.563 22.8835C130.563 22.5584 130.792 22.384 131.097 22.384H132.952C133.284 22.384 133.461 22.5584 133.461 22.8835C133.461 25.9531 131.681 27.7484 127.97 27.7484H125.453C121.259 27.7472 119.707 25.8271 119.707 22.6337Z" fill="#202020"/>
<path d="M136.051 22.6337V15.148C136.051 11.9546 137.601 10.0322 142.051 10.0322H144.568C149.018 10.0322 150.594 11.9534 150.594 15.148V22.6337C150.594 25.8271 149.018 27.7472 144.568 27.7472H142.051C137.601 27.7472 136.051 25.8271 136.051 22.6337ZM142.254 25.1781H144.364C146.601 25.1781 147.694 24.5043 147.694 22.582V15.1975C147.694 13.301 146.601 12.6036 144.364 12.6036H142.254C140.016 12.6036 138.948 13.3021 138.948 15.1975V22.582C138.949 24.5043 140.016 25.1781 142.254 25.1781Z" fill="#202020"/>
<path d="M85.7982 22.6337V15.148C85.7982 11.9546 87.349 10.0322 91.7985 10.0322H94.3155C98.765 10.0322 100.341 11.9534 100.341 15.148V22.6337C100.341 25.8271 98.765 27.7472 94.3155 27.7472H91.7985C87.349 27.7472 85.7982 25.8271 85.7982 22.6337ZM92.0013 25.1781H94.1115C96.3489 25.1781 97.4412 24.5043 97.4412 22.582V15.1975C97.4412 13.301 96.3489 12.6036 94.1115 12.6036H92.0013C89.764 12.6036 88.6957 13.3021 88.6957 15.1975V22.582C88.6969 24.5043 89.764 25.1781 92.0013 25.1781Z" fill="#202020"/>
<path d="M157.508 10.5015H157.284H155.626H152.951C152.62 10.5015 152.442 10.6758 152.442 10.9998V12.8467C152.442 13.1707 152.62 13.345 152.951 13.345H155.117V27.4685C155.117 27.7935 155.295 27.9679 155.625 27.9679H157.507C157.837 27.9679 158.015 27.7935 158.015 27.4685V11.002C158.017 10.6769 157.839 10.5015 157.508 10.5015Z" fill="#202020"/>
<path d="M161.966 27.4683V15.4922C161.966 12.2988 163.517 10.3765 167.712 10.3765H170.229C174.424 10.3765 176 12.2977 176 15.4922V27.4683C176 27.7934 175.822 27.9677 175.491 27.9677H173.61C173.279 27.9677 173.101 27.7934 173.101 27.4683V15.5417C173.101 13.6452 172.008 12.9478 170.025 12.9478H167.915C165.931 12.9478 164.864 13.6464 164.864 15.5417V27.4683C164.864 27.7934 164.686 27.9677 164.356 27.9677H162.474C162.144 27.9677 161.966 27.7934 161.966 27.4683Z" fill="#202020"/>
<path d="M114.603 18.6161V18.3653C116.154 17.8175 116.612 16.8198 116.612 15.7456V14.2743C116.612 11.704 115.062 10.1562 111.12 10.1562H105.807C105.807 10.1562 105.807 10.1562 105.782 10.1562H103.9C103.619 10.1562 103.391 10.3801 103.391 10.6557V11.1866C103.391 11.1888 103.392 11.19 103.392 11.1922C103.392 11.1933 103.391 11.1945 103.391 11.1956V22.9344C103.391 23.2594 103.569 23.4338 103.899 23.4338H105.78C106.11 23.4338 106.287 23.2594 106.287 22.9344V12.4025H106.289H110.917C112.645 12.4025 113.714 12.902 113.714 14.0752V15.6961C113.714 17.2168 112.823 17.6668 111.171 17.6668H109.666H108.942C108.331 17.6668 107.836 18.1527 107.836 18.7522C107.836 19.3518 108.331 19.8377 108.942 19.8377H109.666H111.171C113.154 19.8377 114.223 20.3124 114.223 21.6588V23.5317C114.223 24.904 113.282 25.3775 111.934 25.3775H106.29H104.63C103.946 25.3775 103.391 25.9219 103.391 26.5934V27.1232C103.391 27.3988 103.619 27.6227 103.9 27.6227H105.782C105.782 27.6227 105.782 27.6227 105.807 27.6227H112.138C115.569 27.6227 117.12 25.9759 117.12 23.2561V21.4102C117.12 20.2134 116.536 19.2157 114.603 18.6161Z" fill="#202020"/>
<path d="M55.7794 10.1572H55.5548H53.8974H51.2222C50.8909 10.1572 50.7133 10.3316 50.7133 10.6555V12.5025C50.7133 12.8265 50.8909 13.0008 51.2222 13.0008H53.3885V27.1242C53.3885 27.4493 53.5661 27.6237 53.8962 27.6237H55.7783C56.1084 27.6237 56.286 27.4493 56.286 27.1242V10.6578C56.2872 10.3327 56.1095 10.1572 55.7794 10.1572Z" fill="#202020"/>
<path d="M42.0652 3.64137L38.3034 2.48392C38.2289 2.46029 38.151 2.44905 38.0731 2.44905H30.6583L21.4957 0.0261524C21.3639 -0.00871746 21.2252 -0.00871746 21.0945 0.0261524L11.9399 2.44792H4.52862C4.45068 2.44792 4.37274 2.46029 4.29824 2.48279L0.539875 3.64024C0.216649 3.73923 -0.00227455 4.03394 1.78327e-05 4.36576L0.147877 32.7532C0.149024 33.0682 0.349606 33.3494 0.649908 33.4585L5.24957 35.1345C5.33554 35.166 5.42609 35.1817 5.51778 35.1817H12.9073L21.059 37.7418C21.1358 37.7655 21.2149 37.7778 21.294 37.7778C21.373 37.7778 21.4521 37.7655 21.5289 37.7418L29.6875 35.1817H37.0816C37.1733 35.1817 37.2638 35.166 37.3498 35.1345L41.9541 33.4585C42.2555 33.3494 42.4561 33.0682 42.4572 32.7532L42.6051 4.36576C42.6062 4.03506 42.3873 3.74036 42.0652 3.64137ZM10.5094 3.96307C9.77703 4.17454 9.03888 4.38376 8.28469 4.58286C12.6941 8.63676 16.645 12.4432 21.0372 16.487V0.757294C21.0372 0.617815 21.1518 0.505333 21.294 0.505333C21.4361 0.505333 21.5507 0.617815 21.5507 0.757294V16.4757C25.9601 12.4252 30.3695 8.37579 34.7789 4.32527C34.3227 4.20491 33.8654 4.08343 33.4092 3.96307H36.5463L21.294 18.5927L6.05191 3.96307H10.5094ZM1.68721 32.2234L1.54509 4.91806L4.59739 3.97769L20.5581 19.2979L5.59572 33.6474L1.68721 32.2234ZM31.9719 33.6699C32.5152 33.499 33.0585 33.3291 33.6018 33.1581C29.5855 29.4766 25.5681 25.795 21.5519 22.1134V37.0219C21.5519 37.1614 21.4372 37.2739 21.2951 37.2739C21.153 37.2739 21.0384 37.1614 21.0384 37.0219V22.1021C17.021 25.7882 13.0024 29.4732 8.98501 33.1593C9.52831 33.3302 10.0705 33.5001 10.6138 33.6711H7.04451L21.2951 20.0043L35.5583 33.6711H31.9719V33.6699ZM40.9179 32.2234L37.0048 33.6474L22.0287 19.2979L38.0031 3.97769L41.0589 4.91806L40.9179 32.2234Z" fill="#202020"/>
</svg>
