<svg width="30" height="29" viewBox="0 0 30 29" fill="none" xmlns="http://www.w3.org/2000/svg">
<path d="M15.0033 7.49645C10.7468 7.49645 7.31344 10.6404 7.31344 14.5381C7.31344 18.4358 10.7468 21.5797 15.0033 21.5797C19.2599 21.5797 22.6933 18.4358 22.6933 14.5381C22.6933 10.6404 19.2599 7.49645 15.0033 7.49645ZM15.0033 19.1161C12.2527 19.1161 10.0039 17.063 10.0039 14.5381C10.0039 12.0132 12.246 9.96011 15.0033 9.96011C17.7607 9.96011 20.0028 12.0132 20.0028 14.5381C20.0028 17.063 17.754 19.1161 15.0033 19.1161V19.1161ZM24.8015 7.20841C24.8015 8.12156 23.9983 8.85085 23.0078 8.85085C22.0106 8.85085 21.2142 8.11543 21.2142 7.20841C21.2142 6.30139 22.0173 5.56597 23.0078 5.56597C23.9983 5.56597 24.8015 6.30139 24.8015 7.20841ZM29.8946 8.87536C29.7808 6.67523 29.232 4.72637 27.4718 3.1207C25.7184 1.51504 23.5901 1.0125 21.1874 0.902188C18.7111 0.773489 11.2889 0.773489 8.81261 0.902188C6.41662 1.00637 4.28834 1.50891 2.52817 3.11458C0.767987 4.72024 0.225878 6.6691 0.10541 8.86924C-0.0351366 11.1368 -0.0351366 17.9333 0.10541 20.2008C0.219186 22.401 0.767987 24.3498 2.52817 25.9555C4.28834 27.5612 6.40993 28.0637 8.81261 28.174C11.2889 28.3027 18.7111 28.3027 21.1874 28.174C23.5901 28.0698 25.7184 27.5673 27.4718 25.9555C29.2253 24.3498 29.7741 22.401 29.8946 20.2008C30.0351 17.9333 30.0351 11.1429 29.8946 8.87536V8.87536ZM26.6955 22.6338C26.1735 23.835 25.1629 24.7604 23.8444 25.2446C21.8701 25.9616 17.1852 25.7961 15.0033 25.7961C12.8215 25.7961 8.12995 25.9555 6.1623 25.2446C4.85053 24.7666 3.83993 23.8412 3.31121 22.6338C2.52817 20.8259 2.70887 16.536 2.70887 14.5381C2.70887 12.5402 2.53486 8.24413 3.31121 6.44235C3.83324 5.24116 4.84384 4.31576 6.1623 3.83161C8.13664 3.11458 12.8215 3.28004 15.0033 3.28004C17.1852 3.28004 21.8767 3.1207 23.8444 3.83161C25.1562 4.30963 26.1668 5.23504 26.6955 6.44235C27.4785 8.25026 27.2978 12.5402 27.2978 14.5381C27.2978 16.536 27.4785 20.8321 26.6955 22.6338Z" fill="#202020"/>
</svg>
