<svg width="30" height="29" viewBox="0 0 30 29" fill="none" xmlns="http://www.w3.org/2000/svg">
<path d="M26.9163 9.02974C26.9354 9.2701 26.9354 9.51052 26.9354 9.75088C26.9354 17.0822 20.7488 25.5295 9.44166 25.5295C5.95813 25.5295 2.7221 24.6195 0 23.04C0.494943 23.0915 0.970785 23.1087 1.48477 23.1087C4.3591 23.1087 7.00509 22.233 9.11804 20.7393C6.41499 20.6878 4.14974 19.091 3.36927 16.8933C3.75001 16.9448 4.1307 16.9792 4.53049 16.9792C5.0825 16.9792 5.63457 16.9105 6.1485 16.7903C3.33124 16.2752 1.21823 14.0432 1.21823 11.3476V11.279C2.03673 11.691 2.98859 11.9486 3.9974 11.9829C2.3413 10.987 1.25631 9.28728 1.25631 7.3643C1.25631 6.33415 1.56083 5.38984 2.09386 4.5657C5.12053 7.9309 9.67006 10.1285 14.7715 10.369C14.6764 9.95688 14.6193 9.52769 14.6193 9.09845C14.6193 6.04227 17.3604 3.55273 20.7678 3.55273C22.5381 3.55273 24.137 4.22234 25.2602 5.30401C26.6497 5.06365 27.9822 4.60005 29.1625 3.9648C28.7055 5.25253 27.7348 6.33421 26.4594 7.02093C27.6967 6.90081 28.896 6.59169 30 6.1625C29.1626 7.26129 28.1156 8.23991 26.9163 9.02974V9.02974Z" fill="#202020"/>
</svg>
