<svg width="176" height="42" viewBox="0 0 176 42" fill="none" xmlns="http://www.w3.org/2000/svg">
<path d="M59.8518 30.2247V16.9102C59.8518 13.3598 60.8948 11.2227 65.5977 11.2227H67.1232C68.674 11.2227 69.8695 11.7792 70.759 12.8884H71.0902C72.0049 11.7792 73.1247 11.2227 74.6744 11.2227H76.1999C80.9039 11.2227 81.971 13.3586 81.971 16.9102V30.2247C81.971 30.5862 81.7934 30.78 81.4621 30.78H79.5812C79.25 30.78 79.0723 30.5862 79.0723 30.2247V16.9652C79.0723 14.3028 77.98 14.0814 75.9959 14.0814H75.2073C73.4537 14.0814 72.3602 14.5241 72.3602 16.9102V30.2247C72.3602 30.5862 72.1825 30.78 71.8524 30.78H69.9704C69.6403 30.78 69.4626 30.5862 69.4626 30.2247V16.9652C69.4626 14.5229 68.3692 14.0814 66.6155 14.0814H65.8017C63.8176 14.0814 62.7505 14.3028 62.7505 16.9652V30.2247C62.7505 30.5862 62.5729 30.78 62.2428 30.78H60.3607C60.0295 30.78 59.8518 30.5862 59.8518 30.2247Z" fill="#202020"/>
<path d="M119.707 25.1637V16.8413C119.707 13.291 121.258 11.1538 125.453 11.1538H127.97C131.682 11.1538 133.461 13.1784 133.461 16.6187C133.461 16.9801 133.284 17.1752 132.952 17.1752H131.097C130.792 17.1752 130.563 16.9801 130.563 16.6187C130.563 14.7341 129.342 14.0126 127.766 14.0126H125.656C123.673 14.0126 122.605 14.7892 122.605 16.8963V25.1062C122.605 27.2421 123.673 27.9924 125.656 27.9924H127.766C129.342 27.9924 130.563 27.3272 130.563 25.4413C130.563 25.0799 130.792 24.8861 131.097 24.8861H132.952C133.284 24.8861 133.461 25.0799 133.461 25.4413C133.461 28.8541 131.681 30.85 127.97 30.85H125.453C121.259 30.8487 119.707 28.714 119.707 25.1637Z" fill="#202020"/>
<path d="M136.051 25.1637V16.8413C136.051 13.291 137.601 11.1538 142.051 11.1538H144.568C149.018 11.1538 150.594 13.2897 150.594 16.8413V25.1637C150.594 28.714 149.018 30.8487 144.568 30.8487H142.051C137.601 30.8487 136.051 28.714 136.051 25.1637ZM142.254 27.9924H144.364C146.601 27.9924 147.694 27.2434 147.694 25.1062V16.8963C147.694 14.7879 146.601 14.0126 144.364 14.0126H142.254C140.016 14.0126 138.948 14.7892 138.948 16.8963V25.1062C138.949 27.2434 140.016 27.9924 142.254 27.9924Z" fill="#202020"/>
<path d="M85.7982 25.1637V16.8413C85.7982 13.291 87.349 11.1538 91.7985 11.1538H94.3155C98.765 11.1538 100.341 13.2897 100.341 16.8413V25.1637C100.341 28.714 98.765 30.8487 94.3155 30.8487H91.7985C87.349 30.8487 85.7982 28.714 85.7982 25.1637ZM92.0013 27.9924H94.1115C96.3489 27.9924 97.4412 27.2434 97.4412 25.1062V16.8963C97.4412 14.7879 96.3489 14.0126 94.1115 14.0126H92.0013C89.764 14.0126 88.6957 14.7892 88.6957 16.8963V25.1062C88.6969 27.2434 89.764 27.9924 92.0013 27.9924Z" fill="#202020"/>
<path d="M157.508 11.6755H157.284H155.626H152.951C152.62 11.6755 152.442 11.8694 152.442 12.2295V14.2829C152.442 14.6431 152.62 14.8369 152.951 14.8369H155.117V30.5388C155.117 30.9002 155.295 31.0941 155.625 31.0941H157.507C157.837 31.0941 158.015 30.9002 158.015 30.5388V12.232C158.017 11.8706 157.839 11.6755 157.508 11.6755Z" fill="#202020"/>
<path d="M161.966 30.5387V17.2241C161.966 13.6738 163.517 11.5366 167.712 11.5366H170.229C174.424 11.5366 176 13.6726 176 17.2241V30.5387C176 30.9001 175.822 31.094 175.491 31.094H173.61C173.279 31.094 173.101 30.9001 173.101 30.5387V17.2791C173.101 15.1707 172.008 14.3954 170.025 14.3954H167.915C165.931 14.3954 164.864 15.172 164.864 17.2791V30.5387C164.864 30.9001 164.686 31.094 164.356 31.094H162.474C162.144 31.094 161.966 30.9001 161.966 30.5387Z" fill="#202020"/>
<path d="M114.603 20.6971V20.4183C116.154 19.8092 116.612 18.7 116.612 17.5057V15.87C116.612 13.0125 115.062 11.2917 111.12 11.2917H105.807C105.807 11.2917 105.807 11.2917 105.782 11.2917H103.9C103.619 11.2917 103.391 11.5406 103.391 11.847V12.4373C103.391 12.4398 103.392 12.441 103.392 12.4435C103.392 12.4448 103.391 12.446 103.391 12.4473V25.498C103.391 25.8594 103.569 26.0532 103.899 26.0532H105.78C106.11 26.0532 106.287 25.8594 106.287 25.498V13.7891H106.289H110.917C112.645 13.7891 113.714 14.3443 113.714 15.6487V17.4507C113.714 19.1414 112.823 19.6417 111.171 19.6417H109.666H108.942C108.331 19.6417 107.836 20.1819 107.836 20.8484C107.836 21.515 108.331 22.0552 108.942 22.0552H109.666H111.171C113.154 22.0552 114.223 22.583 114.223 24.0799V26.162C114.223 27.6877 113.282 28.2142 111.934 28.2142H106.29H104.63C103.946 28.2142 103.391 28.8194 103.391 29.566V30.155C103.391 30.4614 103.619 30.7103 103.9 30.7103H105.782C105.782 30.7103 105.782 30.7103 105.807 30.7103H112.138C115.569 30.7103 117.12 28.8795 117.12 25.8556V23.8035C117.12 22.4729 116.536 21.3637 114.603 20.6971Z" fill="#202020"/>
<path d="M55.7794 11.2927H55.5548H53.8974H51.2222C50.8909 11.2927 50.7133 11.4866 50.7133 11.8467V13.9001C50.7133 14.2603 50.8909 14.4541 51.2222 14.4541H53.3885V30.156C53.3885 30.5174 53.5661 30.7113 53.8962 30.7113H55.7783C56.1084 30.7113 56.286 30.5174 56.286 30.156V11.8492C56.2872 11.4878 56.1095 11.2927 55.7794 11.2927Z" fill="#202020"/>
<path d="M41.9034 4.52143L41.9036 4.52148C42.0006 4.55464 42.1057 4.67452 42.1051 4.85214L41.9572 36.4115L41.9572 36.4122C41.9567 36.5795 41.8616 36.6961 41.7674 36.734L41.7665 36.7344L37.1622 38.5977L37.1612 38.5982C37.1355 38.6086 37.1091 38.6137 37.0816 38.6137H29.6875H29.6028L29.5228 38.6416L22.0466 41.2498C22.0501 41.2199 22.0519 41.1898 22.0519 41.1596V25.8083C23.7595 27.5485 25.4673 29.2888 27.1752 31.029L27.2199 31.0746L27.2522 31.1076C29.0659 32.9556 30.8795 34.8037 32.6929 36.6517C32.6694 36.6599 32.6458 36.6682 32.6222 36.6764L32.6142 36.6792C32.3452 36.773 32.076 36.8668 31.8068 36.9611L31.4719 37.0782V37.433V37.4342V37.9342H31.9719H35.5583H36.7135L35.9229 37.092L21.6597 21.8979L21.2949 21.5094L20.9304 21.898L6.67981 37.0922L5.89006 37.9342H7.04451H10.6138L10.7789 36.9623C10.507 36.8672 10.2355 36.7724 9.96417 36.6777C9.94056 36.6694 9.91694 36.6612 9.89333 36.653C11.7077 34.8022 13.5224 32.9517 15.337 31.1011L15.3687 31.0689C17.092 29.3115 18.8152 27.5542 20.5384 25.7966V41.1596C20.5384 41.19 20.5402 41.2203 20.5437 41.2505L13.0721 38.6417L12.9921 38.6137H12.9073H5.51778C5.49033 38.6137 5.46386 38.6086 5.43819 38.5981L5.4373 38.5978L0.837638 36.7345L0.837176 36.7343C0.74382 36.6966 0.648424 36.5798 0.647875 36.4122L0.647872 36.4115L0.500013 4.85135L0.500008 4.85059C0.498904 4.67287 0.603311 4.55368 0.701025 4.52041L0.701838 4.52013L4.45843 3.23392C4.48563 3.22491 4.50952 3.22151 4.52862 3.22151H11.9399H12.0119L12.081 3.20119L20.5484 0.710877C20.541 0.754208 20.5372 0.798079 20.5372 0.841932V17.1C18.6902 15.1997 16.9123 13.3405 15.1325 11.4795L15.0288 11.371C13.1238 9.37905 11.2154 7.38413 9.21928 5.33643C9.70558 5.18733 10.1858 5.03501 10.6623 4.88207L10.5094 3.906H6.05191H4.89811L5.68707 4.74789L20.9291 21.0125L21.2938 21.4017L21.6587 21.0127L36.911 4.74802L37.7007 3.906H36.5463H33.4092L33.2685 4.88578C33.4585 4.94153 33.6488 4.99751 33.8393 5.05357C31.8368 7.09865 29.8343 9.14349 27.8318 11.1884L27.8076 11.2131L27.7601 11.2616C25.857 13.2049 23.9538 15.1483 22.0507 17.0918V0.841932C22.0507 0.79781 22.0469 0.75367 22.0394 0.710081L30.5173 3.20246L30.5864 3.22276H30.6583H38.0731C38.0976 3.22276 38.119 3.22668 38.1372 3.23311L38.1416 3.23461L41.9034 4.52143ZM0.000173989 4.85369L1.78327e-05 4.85369L0.000173989 4.85369ZM1.18722 35.8271L1.18879 36.1624L1.49949 36.2882L5.40801 37.8714L5.72584 38.0002L5.96042 37.75L20.9228 21.7968L21.2435 21.4549L20.923 21.1128L4.96224 4.08037L4.7412 3.84448L4.43537 3.94923L1.38307 4.99469L1.04341 5.11103L1.04509 5.47006L1.18722 35.8271ZM41.1054 36.2883L41.4163 36.1625L41.4179 35.8271L41.5589 5.47004L41.5606 5.1109L41.2207 4.99464L38.165 3.94918L37.8594 3.84462L37.6384 4.08021L21.664 21.1127L21.343 21.4549L21.6641 21.7969L36.6403 37.7502L36.8747 38L37.1923 37.8715L41.1054 36.2883Z" fill="url(#paint0_linear_1699_573)" stroke="black"/>
<defs>
<linearGradient id="paint0_linear_1699_573" x1="-0.000520877" y1="21.0015" x2="42.6052" y2="21.0015" gradientUnits="userSpaceOnUse">
<stop/>
<stop offset="0.0001"/>
<stop offset="1"/>
</linearGradient>
</defs>
</svg>
