<svg width="774" height="176" viewBox="0 0 774 176" fill="none" xmlns="http://www.w3.org/2000/svg">
<g filter="url(#filter0_d_2070_583)">
<g filter="url(#filter1_d_2070_583)">
<path d="M264.491 120.899V67.6411C264.491 53.4399 269.031 44.8911 289.499 44.8911H296.139C302.888 44.8911 308.091 47.1171 311.962 51.5541H313.404C317.385 47.1171 322.259 44.8911 329.003 44.8911H335.643C356.116 44.8911 360.76 53.4349 360.76 67.6411V120.899C360.76 122.345 359.987 123.12 358.545 123.12H350.359C348.917 123.12 348.144 122.345 348.144 120.899V67.8612C348.144 57.2115 343.39 56.3261 334.755 56.3261H331.323C323.69 56.3261 318.931 58.0969 318.931 67.6411V120.899C318.931 122.345 318.158 123.12 316.721 123.12H308.53C307.094 123.12 306.32 122.345 306.32 120.899V67.8612C306.32 58.0919 301.561 56.3261 293.929 56.3261H290.387C281.752 56.3261 277.107 57.2115 277.107 67.8612V120.899C277.107 122.345 276.334 123.12 274.897 123.12H266.706C265.265 123.12 264.491 122.345 264.491 120.899Z" fill="#202020"/>
<path d="M524.998 100.655V67.3653C524.998 53.1641 531.747 44.6154 550.005 44.6154H560.96C577.118 44.6154 584.86 52.7139 584.86 66.4749C584.86 67.9206 584.087 68.7009 582.645 68.7009H574.569C573.242 68.7009 572.244 67.9206 572.244 66.4749C572.244 58.9366 566.932 56.0504 560.072 56.0504H550.888C542.258 56.0504 537.609 59.1567 537.609 67.5854V100.425C537.609 108.969 542.258 111.97 550.888 111.97H560.072C566.932 111.97 572.244 109.309 572.244 101.765C572.244 100.32 573.242 99.5445 574.569 99.5445H582.645C584.087 99.5445 584.86 100.32 584.86 101.765C584.86 115.416 577.113 123.4 560.96 123.4H550.005C531.752 123.395 524.998 114.856 524.998 100.655Z" fill="#202020"/>
<path d="M596.13 100.655V67.3653C596.13 53.1641 602.879 44.6154 622.245 44.6154H633.199C652.565 44.6154 659.424 53.1591 659.424 67.3653V100.655C659.424 114.856 652.565 123.395 633.199 123.395H622.245C602.879 123.395 596.13 114.856 596.13 100.655ZM623.128 111.97H632.311C642.049 111.97 646.803 108.974 646.803 100.425V67.5854C646.803 59.1517 642.049 56.0504 632.311 56.0504H623.128C613.39 56.0504 608.741 59.1567 608.741 67.5854V100.425C608.746 108.974 613.39 111.97 623.128 111.97Z" fill="#202020"/>
<path d="M377.417 100.655V67.3653C377.417 53.1641 384.166 44.6154 403.532 44.6154H414.487C433.852 44.6154 440.712 53.1591 440.712 67.3653V100.655C440.712 114.856 433.852 123.395 414.487 123.395H403.532C384.166 123.395 377.417 114.856 377.417 100.655ZM404.415 111.97H413.599C423.336 111.97 428.091 108.974 428.091 100.425V67.5854C428.091 59.1517 423.336 56.0504 413.599 56.0504H404.415C394.677 56.0504 390.028 59.1567 390.028 67.5854V100.425C390.033 108.974 394.677 111.97 404.415 111.97Z" fill="#202020"/>
<path d="M689.52 46.7021H688.542H681.329H669.685C668.244 46.7021 667.47 47.4775 667.47 48.9181V57.1317C667.47 58.5724 668.244 59.3477 669.685 59.3477H679.114V122.155C679.114 123.601 679.887 124.376 681.324 124.376H689.515C690.952 124.376 691.725 123.601 691.725 122.155V48.9281C691.735 47.4825 690.956 46.7021 689.52 46.7021Z" fill="#202020"/>
<path d="M708.92 122.155V68.8965C708.92 54.6952 715.67 46.1465 733.928 46.1465H744.883C763.141 46.1465 770 54.6902 770 68.8965V122.155C770 123.6 769.227 124.376 767.785 124.376H759.599C758.157 124.376 757.384 123.6 757.384 122.155V69.1166C757.384 60.6829 752.625 57.5815 743.995 57.5815H734.811C726.176 57.5815 721.531 60.6879 721.531 69.1166V122.155C721.531 123.6 720.758 124.376 719.321 124.376H711.13C709.693 124.376 708.92 123.6 708.92 122.155Z" fill="#202020"/>
<path d="M502.784 82.7881V81.6726C509.533 79.2366 511.529 74.7996 511.529 70.0225V63.4797C511.529 52.0497 504.779 45.1666 487.624 45.1666H464.502C464.502 45.1666 464.502 45.1666 464.392 45.1666H456.201C454.979 45.1666 453.986 46.1621 453.986 47.3876V49.7486C453.986 49.7586 453.991 49.7637 453.991 49.7737C453.991 49.7787 453.986 49.7837 453.986 49.7887V101.992C453.986 103.437 454.759 104.213 456.196 104.213H464.382C465.819 104.213 466.592 103.437 466.592 101.992V55.156H466.597H486.741C494.263 55.156 498.913 57.377 498.913 62.5943V69.8024C498.913 76.5654 495.037 78.5663 487.848 78.5663H481.298H478.146C475.487 78.5663 473.332 80.7272 473.332 83.3934C473.332 86.0596 475.487 88.2205 478.146 88.2205H481.298H487.848C496.478 88.2205 501.128 90.3315 501.128 96.3191V104.648C501.128 110.75 497.032 112.856 491.166 112.856H466.602H459.379C456.4 112.856 453.986 115.277 453.986 118.264V120.62C453.986 121.845 454.979 122.841 456.201 122.841H464.392C464.392 122.841 464.392 122.841 464.502 122.841H492.054C506.989 122.841 513.739 115.518 513.739 103.422V95.2136C513.739 89.8912 511.195 85.4543 502.784 82.7881Z" fill="#202020"/>
<path d="M246.767 45.1711H245.79H238.576H226.933C225.491 45.1711 224.718 45.9465 224.718 47.3871V55.6007C224.718 57.0414 225.491 57.8167 226.933 57.8167H236.361V120.624C236.361 122.07 237.134 122.845 238.571 122.845H246.762C248.199 122.845 248.972 122.07 248.972 120.624V47.3971C248.977 45.9515 248.204 45.1711 246.767 45.1711Z" fill="#202020"/>
</g>
<path d="M187.079 16.1934L170.707 11.0461C170.383 10.9411 170.044 10.891 169.704 10.891H137.433L97.5551 0.116301C96.9814 -0.038767 96.3778 -0.038767 95.8091 0.116301L55.9657 10.886H23.7098C23.3706 10.886 23.0313 10.9411 22.7071 11.0411L6.34968 16.1884C4.94291 16.6286 3.9901 17.9391 4.00008 19.4148L4.6436 145.655C4.64859 147.056 5.52158 148.306 6.82858 148.792L26.8476 156.245C27.2217 156.385 27.6158 156.455 28.0149 156.455H60.176L95.6545 167.84C95.9887 167.945 96.3329 168 96.6771 168C97.0213 168 97.3655 167.945 97.6998 167.84L133.208 156.455H165.389C165.788 156.455 166.182 156.385 166.557 156.245L186.596 148.792C187.908 148.306 188.78 147.056 188.785 145.655L189.429 19.4148C189.434 17.9441 188.481 16.6336 187.079 16.1934ZM49.74 17.624C46.5523 18.5644 43.3397 19.4948 40.0572 20.3802C59.2481 38.4081 76.4436 55.3356 95.5597 73.3185V3.36773C95.5597 2.74746 96.0585 2.24724 96.6771 2.24724C97.2957 2.24724 97.7946 2.74746 97.7946 3.36773V73.2684C116.985 55.2555 136.176 37.2476 155.367 19.2347C153.382 18.6995 151.391 18.1592 149.406 17.624H163.06L96.6771 82.6825L30.3396 17.624H49.74ZM11.3432 143.299L10.7246 21.8709L24.0091 17.689L93.4745 85.8189L28.3541 149.632L11.3432 143.299ZM143.15 149.732C145.515 148.972 147.879 148.216 150.244 147.456C132.764 131.084 115.279 114.712 97.7995 98.3394V164.639C97.7995 165.259 97.3007 165.759 96.6821 165.759C96.0635 165.759 95.5647 165.259 95.5647 164.639V98.2894C78.0799 114.682 60.59 131.069 43.1052 147.461C45.4698 148.221 47.8294 148.977 50.1939 149.737H34.6596L96.6821 88.9603L158.759 149.737H143.15V149.732ZM182.086 143.299L165.055 149.632L99.8748 85.8189L169.4 17.689L182.699 21.8709L182.086 143.299Z" fill="#202020"/>
</g>
<defs>
<filter id="filter0_d_2070_583" x="0" y="0" width="774" height="176" filterUnits="userSpaceOnUse" color-interpolation-filters="sRGB">
<feFlood flood-opacity="0" result="BackgroundImageFix"/>
<feColorMatrix in="SourceAlpha" type="matrix" values="0 0 0 0 0 0 0 0 0 0 0 0 0 0 0 0 0 0 127 0" result="hardAlpha"/>
<feOffset dy="4"/>
<feGaussianBlur stdDeviation="2"/>
<feComposite in2="hardAlpha" operator="out"/>
<feColorMatrix type="matrix" values="0 0 0 0 0 0 0 0 0 0 0 0 0 0 0 0 0 0 0.25 0"/>
<feBlend mode="normal" in2="BackgroundImageFix" result="effect1_dropShadow_2070_583"/>
<feBlend mode="normal" in="SourceGraphic" in2="effect1_dropShadow_2070_583" result="shape"/>
</filter>
<filter id="filter1_d_2070_583" x="220.718" y="44.6154" width="553.282" height="98.7609" filterUnits="userSpaceOnUse" color-interpolation-filters="sRGB">
<feFlood flood-opacity="0" result="BackgroundImageFix"/>
<feColorMatrix in="SourceAlpha" type="matrix" values="0 0 0 0 0 0 0 0 0 0 0 0 0 0 0 0 0 0 127 0" result="hardAlpha"/>
<feOffset dy="15"/>
<feGaussianBlur stdDeviation="2"/>
<feComposite in2="hardAlpha" operator="out"/>
<feColorMatrix type="matrix" values="0 0 0 0 0 0 0 0 0 0 0 0 0 0 0 0 0 0 0.25 0"/>
<feBlend mode="normal" in2="BackgroundImageFix" result="effect1_dropShadow_2070_583"/>
<feBlend mode="normal" in="SourceGraphic" in2="effect1_dropShadow_2070_583" result="shape"/>
</filter>
</defs>
</svg>
